<?xml version="1.0" standalone="no"?>
<!DOCTYPE svg PUBLIC "-//W3C//DTD SVG 20010904//EN"
 "http://www.w3.org/TR/2001/REC-SVG-20010904/DTD/svg10.dtd">
<svg version="1.0" xmlns="http://www.w3.org/2000/svg"
 width="343.000000pt" height="343.000000pt" viewBox="0 0 343.000000 343.000000"
 preserveAspectRatio="xMidYMid meet">
<metadata>
Created by potrace 1.11, written by Peter Selinger 2001-2013
</metadata>
<g transform="translate(0.000000,343.000000) scale(0.100000,-0.100000)"
fill="#000000" stroke="none">
<path d="M0 3086 l0 -343 149 4 149 3 4 -51 c2 -37 -1 -53 -12 -60 -10 -5 -11
-8 -2 -9 6 0 12 -11 12 -24 0 -30 -18 -35 -137 -35 -51 0 -97 -2 -102 -5 -5
-4 -11 -2 -13 4 -1 5 -13 7 -26 4 l-23 -6 1 -234 c1 -138 5 -234 11 -234 5 0
9 5 9 10 0 6 5 10 11 10 5 0 7 -5 3 -12 -5 -8 0 -9 14 -6 12 4 22 2 22 -3 0
-5 3 -8 8 -8 28 5 52 -3 52 -17 0 -8 4 -13 9 -10 5 4 7 -3 4 -14 -6 -24 -23
-37 -23 -18 0 8 -5 7 -16 -4 -12 -12 -23 -14 -40 -8 -14 6 -26 6 -29 0 -3 -5
-12 -7 -20 -3 -10 3 -15 -1 -15 -13 0 -16 8 -19 58 -19 31 0 65 -4 75 -7 19
-8 22 -43 7 -82 -9 -26 -30 -36 -30 -15 0 5 5 7 11 3 7 -4 10 1 7 12 -2 10
-12 20 -22 22 -15 3 -17 -1 -11 -27 5 -24 3 -30 -7 -26 -9 4 -14 -2 -14 -15 0
-11 4 -20 8 -20 4 0 8 -10 7 -22 -1 -19 -4 -16 -17 14 -16 36 -41 55 -28 22 5
-13 1 -15 -19 -12 -29 6 -35 -15 -8 -30 17 -10 28 -62 13 -62 -5 0 -6 -7 -3
-17 4 -10 2 -14 -4 -10 -6 4 -14 0 -17 -9 -9 -22 -8 -23 14 -19 11 2 22 0 25
-6 6 -9 -8 -13 -32 -10 -9 1 -13 -16 -13 -59 l0 -60 123 0 c67 0 127 -4 133
-8 6 -4 14 -29 18 -57 4 -27 14 -83 22 -123 9 -40 13 -79 10 -88 -3 -9 3 -27
13 -40 12 -15 26 -63 36 -122 10 -53 22 -103 28 -110 20 -25 -9 -31 -163 -32
-221 -2 -200 -5 -194 33 4 17 12 36 19 41 10 8 8 14 -10 28 -13 10 -26 18 -29
18 -3 0 -6 -34 -6 -75 l0 -75 202 3 c186 2 203 1 206 -15 2 -11 -3 -18 -13
-18 -14 0 -16 -13 -11 -117 3 -65 9 -180 12 -255 l6 -137 31 -4 32 -3 -33 -9
c-40 -9 -59 -46 -43 -83 6 -13 7 -21 2 -18 -5 3 -11 -1 -15 -9 -3 -9 0 -15 8
-15 10 0 12 -10 6 -42 -5 -24 -6 -46 -3 -50 2 -5 -3 -15 -12 -24 -9 -9 -14
-22 -11 -29 2 -7 -5 -18 -17 -25 -12 -7 -37 -30 -56 -51 l-33 -39 1100 0 1101
0 3 46 3 47 53 4 c57 4 56 5 67 -60 l6 -37 419 0 420 0 0 23 c0 18 -2 19 -10
7 -8 -12 -10 -11 -10 8 0 12 5 22 10 22 7 0 10 242 10 705 0 620 -2 705 -15
705 -19 0 -19 5 0 77 13 49 15 191 15 970 l0 913 -1430 0 -1431 0 5 -32 c3
-18 10 -119 16 -224 11 -176 10 -194 -7 -232 -21 -51 -43 -55 -43 -9 -1 17 -2
115 -4 217 -2 102 -5 206 -5 233 l-1 47 -265 0 -265 0 0 -344z m133 -1240 c7
-17 -20 -30 -29 -14 -4 7 -3 8 4 4 7 -4 12 -1 12 8 0 20 6 20 13 2z m-68 -36
c3 -5 -1 -10 -9 -10 -9 0 -16 5 -16 10 0 6 4 10 9 10 6 0 13 -4 16 -10z m105
-41 c0 -16 -4 -29 -9 -29 -23 0 -41 14 -41 31 0 10 -5 19 -11 19 -5 0 -8 4 -5
8 3 5 19 7 36 4 25 -4 30 -9 30 -33z m2682 9 c13 -24 38 -168 31 -180 -2 -4
-10 -5 -18 -1 -10 3 -15 19 -15 45 0 42 -17 115 -32 134 -8 11 -1 24 13 24 5
0 14 -10 21 -22z m-2755 -20 c-3 -8 -6 -5 -6 6 -1 11 2 17 5 13 3 -3 4 -12 1
-19z m-17 -9 c0 -6 -4 -7 -10 -4 -5 3 -10 11 -10 16 0 6 5 7 10 4 6 -3 10 -11
10 -16z m-20 -16 c0 -5 -5 -15 -10 -23 -8 -12 -10 -11 -10 8 0 12 5 22 10 22
6 0 10 -3 10 -7z m65 -13 c3 -6 -5 -10 -19 -10 -14 0 -28 5 -31 10 -3 6 5 10
19 10 14 0 28 -4 31 -10z m55 0 c0 -5 -7 -10 -16 -10 -8 0 -12 5 -9 10 3 6 10
10 16 10 5 0 9 -4 9 -10z m-35 -48 c-3 -3 -11 0 -18 7 -9 10 -8 11 6 5 10 -3
15 -9 12 -12z m1327 -404 c-24 -24 -30 -11 -11 24 8 15 14 17 22 9 8 -8 5 -17
-11 -33z m8 -43 c0 -9 -6 -12 -15 -9 -8 4 -15 10 -15 15 0 5 7 9 15 9 8 0 15
-7 15 -15z m240 -5 c0 -5 -4 -10 -10 -10 -5 0 -10 5 -10 10 0 6 5 10 10 10 6
0 10 -4 10 -10z m15 -30 c3 -5 1 -10 -4 -10 -6 0 -11 5 -11 10 0 6 2 10 4 10
3 0 8 -4 11 -10z m-1300 -486 c3 -93 8 -178 12 -189 3 -11 17 -30 30 -41 36
-31 27 -58 -19 -62 l-36 -3 -6 103 c-12 227 -16 365 -9 371 18 18 24 -22 28
-179z m119 -408 c-3 -9 -10 -16 -14 -16 -10 0 -21 41 -14 52 9 14 34 -19 28
-36z m-147 -98 c-3 -7 -5 -2 -5 12 0 14 2 19 5 13 2 -7 2 -19 0 -25z m2988
-148 c-3 -5 -16 -10 -28 -9 -21 0 -21 1 -2 9 28 12 37 12 30 0z"/>
<path d="M23 2703 c-33 -6 -29 -31 5 -30 25 2 42 13 42 30 0 7 -9 7 -47 0z"/>
<path d="M80 2692 c0 -10 7 -19 15 -19 8 0 15 9 15 19 0 10 -7 18 -15 18 -8 0
-15 -8 -15 -18z"/>
<path d="M127 2695 c-4 -8 -2 -17 3 -20 6 -4 10 3 10 14 0 25 -6 27 -13 6z"/>
<path d="M180 2651 c-14 -4 -46 -7 -73 -6 -34 1 -52 -4 -64 -17 -15 -17 -11
-18 105 -18 l121 0 -8 23 c-9 24 -39 31 -81 18z"/>
<path d="M1 2614 c0 -11 3 -14 6 -6 3 7 2 16 -1 19 -3 4 -6 -2 -5 -13z"/>
<path d="M20 1899 c0 -5 -4 -8 -9 -5 -5 3 -8 -5 -7 -19 1 -26 26 -36 26 -11 0
7 10 16 22 19 25 7 18 19 -12 24 -11 2 -20 -2 -20 -8z"/>
<path d="M170 1476 c0 -7 7 -19 15 -26 12 -10 16 -9 21 3 3 9 3 21 -1 27 -9
15 -35 12 -35 -4z"/>
<path d="M37 1473 c-9 -9 12 -33 29 -33 8 0 14 9 14 20 0 19 -28 28 -43 13z"/>
<path d="M20 1311 c-15 -29 -12 -45 11 -75 41 -52 108 -21 94 45 -11 48 -84
69 -105 30z"/>
<path d="M71 867 c-8 -10 -7 -19 4 -33 13 -18 15 -18 31 -2 14 14 15 20 4 32
-15 19 -24 20 -39 3z"/>
<path d="M202 858 c2 -15 10 -23 23 -23 30 0 27 39 -3 43 -20 3 -23 0 -20 -20z"/>
<path d="M55 700 c-30 -33 9 -110 56 -110 48 0 65 71 26 108 -29 27 -58 28
-82 2z"/>
<path d="M340 650 c0 -5 5 -10 10 -10 6 0 10 5 10 10 0 6 -4 10 -10 10 -5 0
-10 -4 -10 -10z"/>
<path d="M0 240 l0 -240 30 0 c84 0 193 95 240 210 17 41 40 90 50 108 11 18
20 36 20 39 0 3 -64 4 -142 2 l-143 -4 3 30 c6 45 18 54 80 58 l57 3 -66 2
c-49 1 -68 6 -73 17 -3 8 -17 15 -31 15 l-25 0 0 -240z"/>
</g>
</svg>
